<mxfile host="app.diagrams.net" agent="Mozilla/5.0 (Windows NT 10.0; Win64; x64) AppleWebKit/537.36 (KHTML, like Gecko) Chrome/131.0.0.0 Safari/537.36" version="24.8.8">
  <diagram name="PaginÄƒ-1" id="p8kJaGKfmPmrGk0nMDl-">
    <mxGraphModel dx="2963" dy="1080" grid="1" gridSize="10" guides="1" tooltips="1" connect="1" arrows="1" fold="1" page="1" pageScale="1" pageWidth="1654" pageHeight="1169" math="0" shadow="0">
      <root>
        <mxCell id="0" />
        <mxCell id="1" parent="0" />
        <mxCell id="-nB0gfUVQe1chdUKQBeN-37" value="" style="group" parent="1" vertex="1" connectable="0">
          <mxGeometry x="180" y="235" width="600" height="60" as="geometry" />
        </mxCell>
        <mxCell id="-nB0gfUVQe1chdUKQBeN-29" value="&lt;span style=&quot;text-decoration-line: underline;&quot;&gt;address_id&lt;/span&gt;" style="rounded=0;whiteSpace=wrap;html=1;" parent="-nB0gfUVQe1chdUKQBeN-37" vertex="1">
          <mxGeometry y="30" width="100" height="30" as="geometry" />
        </mxCell>
        <mxCell id="-nB0gfUVQe1chdUKQBeN-30" value="state" style="rounded=0;whiteSpace=wrap;html=1;" parent="-nB0gfUVQe1chdUKQBeN-37" vertex="1">
          <mxGeometry x="200" y="30" width="100" height="30" as="geometry" />
        </mxCell>
        <mxCell id="-nB0gfUVQe1chdUKQBeN-31" value="Address" style="text;html=1;align=center;verticalAlign=middle;whiteSpace=wrap;rounded=0;fillColor=#d5e8d4;strokeColor=#82b366;" parent="-nB0gfUVQe1chdUKQBeN-37" vertex="1">
          <mxGeometry width="60" height="30" as="geometry" />
        </mxCell>
        <mxCell id="-nB0gfUVQe1chdUKQBeN-32" value="city" style="rounded=0;whiteSpace=wrap;html=1;" parent="-nB0gfUVQe1chdUKQBeN-37" vertex="1">
          <mxGeometry x="300" y="30" width="100" height="30" as="geometry" />
        </mxCell>
        <mxCell id="-nB0gfUVQe1chdUKQBeN-33" value="ZIP_code" style="rounded=0;whiteSpace=wrap;html=1;" parent="-nB0gfUVQe1chdUKQBeN-37" vertex="1">
          <mxGeometry x="100" y="30" width="100" height="30" as="geometry" />
        </mxCell>
        <mxCell id="-nB0gfUVQe1chdUKQBeN-34" value="street_name" style="rounded=0;whiteSpace=wrap;html=1;" parent="-nB0gfUVQe1chdUKQBeN-37" vertex="1">
          <mxGeometry x="400" y="30" width="100" height="30" as="geometry" />
        </mxCell>
        <mxCell id="-nB0gfUVQe1chdUKQBeN-35" value="address_addition" style="rounded=0;whiteSpace=wrap;html=1;" parent="-nB0gfUVQe1chdUKQBeN-37" vertex="1">
          <mxGeometry x="500" y="30" width="100" height="30" as="geometry" />
        </mxCell>
        <mxCell id="-nB0gfUVQe1chdUKQBeN-92" value="" style="group" parent="1" vertex="1" connectable="0">
          <mxGeometry x="280" y="715" width="270" height="60" as="geometry" />
        </mxCell>
        <mxCell id="-nB0gfUVQe1chdUKQBeN-60" value="&lt;u&gt;ID&lt;/u&gt;" style="rounded=0;whiteSpace=wrap;html=1;" parent="-nB0gfUVQe1chdUKQBeN-92" vertex="1">
          <mxGeometry y="30" width="90" height="30" as="geometry" />
        </mxCell>
        <mxCell id="-nB0gfUVQe1chdUKQBeN-61" value="Author" style="text;html=1;align=center;verticalAlign=middle;whiteSpace=wrap;rounded=0;fillColor=#d5e8d4;strokeColor=#82b366;" parent="-nB0gfUVQe1chdUKQBeN-92" vertex="1">
          <mxGeometry width="60" height="30" as="geometry" />
        </mxCell>
        <mxCell id="-nB0gfUVQe1chdUKQBeN-62" value="WriterType" style="rounded=0;whiteSpace=wrap;html=1;" parent="-nB0gfUVQe1chdUKQBeN-92" vertex="1">
          <mxGeometry x="90" y="30" width="90" height="30" as="geometry" />
        </mxCell>
        <mxCell id="-nB0gfUVQe1chdUKQBeN-64" value="writer_id" style="rounded=0;whiteSpace=wrap;html=1;" parent="-nB0gfUVQe1chdUKQBeN-92" vertex="1">
          <mxGeometry x="180" y="30" width="90" height="30" as="geometry" />
        </mxCell>
        <mxCell id="-nB0gfUVQe1chdUKQBeN-93" value="" style="group" parent="1" vertex="1" connectable="0">
          <mxGeometry x="280" y="555" width="270" height="60" as="geometry" />
        </mxCell>
        <mxCell id="-nB0gfUVQe1chdUKQBeN-48" value="&lt;u&gt;ID&lt;/u&gt;" style="rounded=0;whiteSpace=wrap;html=1;container=0;" parent="-nB0gfUVQe1chdUKQBeN-93" vertex="1">
          <mxGeometry y="30" width="90" height="30" as="geometry" />
        </mxCell>
        <mxCell id="-nB0gfUVQe1chdUKQBeN-50" value="Client" style="text;html=1;align=center;verticalAlign=middle;whiteSpace=wrap;rounded=0;container=0;fillColor=#d5e8d4;strokeColor=#82b366;" parent="-nB0gfUVQe1chdUKQBeN-93" vertex="1">
          <mxGeometry width="60" height="30" as="geometry" />
        </mxCell>
        <mxCell id="-nB0gfUVQe1chdUKQBeN-52" value="ClientType" style="rounded=0;whiteSpace=wrap;html=1;container=0;" parent="-nB0gfUVQe1chdUKQBeN-93" vertex="1">
          <mxGeometry x="90" y="30" width="90" height="30" as="geometry" />
        </mxCell>
        <mxCell id="-nB0gfUVQe1chdUKQBeN-75" value="client_id" style="rounded=0;whiteSpace=wrap;html=1;container=0;" parent="-nB0gfUVQe1chdUKQBeN-93" vertex="1">
          <mxGeometry x="180" y="30" width="90" height="30" as="geometry" />
        </mxCell>
        <mxCell id="-nB0gfUVQe1chdUKQBeN-95" value="" style="group" parent="1" vertex="1" connectable="0">
          <mxGeometry x="830" y="555" width="500" height="60" as="geometry" />
        </mxCell>
        <mxCell id="-nB0gfUVQe1chdUKQBeN-68" value="&lt;span style=&quot;text-decoration-line: underline;&quot;&gt;order_id&lt;/span&gt;" style="rounded=0;whiteSpace=wrap;html=1;" parent="-nB0gfUVQe1chdUKQBeN-95" vertex="1">
          <mxGeometry y="30" width="100" height="30" as="geometry" />
        </mxCell>
        <mxCell id="-nB0gfUVQe1chdUKQBeN-69" value="order_number" style="rounded=0;whiteSpace=wrap;html=1;" parent="-nB0gfUVQe1chdUKQBeN-95" vertex="1">
          <mxGeometry x="300" y="30" width="100" height="30" as="geometry" />
        </mxCell>
        <mxCell id="-nB0gfUVQe1chdUKQBeN-70" value="Order" style="text;html=1;align=center;verticalAlign=middle;whiteSpace=wrap;rounded=0;fillColor=#d5e8d4;strokeColor=#82b366;" parent="-nB0gfUVQe1chdUKQBeN-95" vertex="1">
          <mxGeometry width="60" height="30" as="geometry" />
        </mxCell>
        <mxCell id="-nB0gfUVQe1chdUKQBeN-71" value="order_amount" style="rounded=0;whiteSpace=wrap;html=1;" parent="-nB0gfUVQe1chdUKQBeN-95" vertex="1">
          <mxGeometry x="400" y="30" width="100" height="30" as="geometry" />
        </mxCell>
        <mxCell id="-nB0gfUVQe1chdUKQBeN-72" value="issued_date" style="rounded=0;whiteSpace=wrap;html=1;" parent="-nB0gfUVQe1chdUKQBeN-95" vertex="1">
          <mxGeometry x="200" y="30" width="100" height="30" as="geometry" />
        </mxCell>
        <mxCell id="-nB0gfUVQe1chdUKQBeN-94" value="client_id" style="rounded=0;whiteSpace=wrap;html=1;" parent="-nB0gfUVQe1chdUKQBeN-95" vertex="1">
          <mxGeometry x="100" y="30" width="100" height="30" as="geometry" />
        </mxCell>
        <mxCell id="-nB0gfUVQe1chdUKQBeN-96" value="" style="group" parent="1" vertex="1" connectable="0">
          <mxGeometry x="830" y="715" width="700" height="60" as="geometry" />
        </mxCell>
        <mxCell id="-nB0gfUVQe1chdUKQBeN-83" value="&lt;span style=&quot;text-decoration-line: underline;&quot;&gt;ISBN&lt;/span&gt;" style="rounded=0;whiteSpace=wrap;html=1;" parent="-nB0gfUVQe1chdUKQBeN-96" vertex="1">
          <mxGeometry y="30" width="100" height="30" as="geometry" />
        </mxCell>
        <mxCell id="-nB0gfUVQe1chdUKQBeN-84" value="title" style="rounded=0;whiteSpace=wrap;html=1;" parent="-nB0gfUVQe1chdUKQBeN-96" vertex="1">
          <mxGeometry x="400" y="30" width="100" height="30" as="geometry" />
        </mxCell>
        <mxCell id="-nB0gfUVQe1chdUKQBeN-85" value="Book" style="text;html=1;align=center;verticalAlign=middle;whiteSpace=wrap;rounded=0;fillColor=#d5e8d4;strokeColor=#82b366;" parent="-nB0gfUVQe1chdUKQBeN-96" vertex="1">
          <mxGeometry width="60" height="30" as="geometry" />
        </mxCell>
        <mxCell id="-nB0gfUVQe1chdUKQBeN-86" value="publication_date" style="rounded=0;whiteSpace=wrap;html=1;" parent="-nB0gfUVQe1chdUKQBeN-96" vertex="1">
          <mxGeometry x="500" y="30" width="100" height="30" as="geometry" />
        </mxCell>
        <mxCell id="-nB0gfUVQe1chdUKQBeN-87" value="publisher_id" style="rounded=0;whiteSpace=wrap;html=1;" parent="-nB0gfUVQe1chdUKQBeN-96" vertex="1">
          <mxGeometry x="200" y="30" width="100" height="30" as="geometry" />
        </mxCell>
        <mxCell id="-nB0gfUVQe1chdUKQBeN-88" value="price" style="rounded=0;whiteSpace=wrap;html=1;" parent="-nB0gfUVQe1chdUKQBeN-96" vertex="1">
          <mxGeometry x="600" y="30" width="100" height="30" as="geometry" />
        </mxCell>
        <mxCell id="-nB0gfUVQe1chdUKQBeN-89" value="category_id" style="rounded=0;whiteSpace=wrap;html=1;" parent="-nB0gfUVQe1chdUKQBeN-96" vertex="1">
          <mxGeometry x="300" y="30" width="100" height="30" as="geometry" />
        </mxCell>
        <mxCell id="-nB0gfUVQe1chdUKQBeN-90" value="writer_id" style="rounded=0;whiteSpace=wrap;html=1;" parent="-nB0gfUVQe1chdUKQBeN-96" vertex="1">
          <mxGeometry x="100" y="30" width="100" height="30" as="geometry" />
        </mxCell>
        <mxCell id="-nB0gfUVQe1chdUKQBeN-113" value="" style="group" parent="1" vertex="1" connectable="0">
          <mxGeometry x="730" y="395" width="400" height="60" as="geometry" />
        </mxCell>
        <mxCell id="-nB0gfUVQe1chdUKQBeN-105" value="&lt;span style=&quot;text-decoration-line: underline;&quot;&gt;payment_id&lt;/span&gt;" style="rounded=0;whiteSpace=wrap;html=1;" parent="-nB0gfUVQe1chdUKQBeN-113" vertex="1">
          <mxGeometry y="30" width="100" height="30" as="geometry" />
        </mxCell>
        <mxCell id="-nB0gfUVQe1chdUKQBeN-106" value="payment_date" style="rounded=0;whiteSpace=wrap;html=1;" parent="-nB0gfUVQe1chdUKQBeN-113" vertex="1">
          <mxGeometry x="300" y="30" width="100" height="30" as="geometry" />
        </mxCell>
        <mxCell id="-nB0gfUVQe1chdUKQBeN-107" value="Payment" style="text;html=1;align=center;verticalAlign=middle;whiteSpace=wrap;rounded=0;fillColor=#d5e8d4;strokeColor=#82b366;" parent="-nB0gfUVQe1chdUKQBeN-113" vertex="1">
          <mxGeometry width="60" height="30" as="geometry" />
        </mxCell>
        <mxCell id="-nB0gfUVQe1chdUKQBeN-109" value="amount" style="rounded=0;whiteSpace=wrap;html=1;" parent="-nB0gfUVQe1chdUKQBeN-113" vertex="1">
          <mxGeometry x="100" y="30" width="100" height="30" as="geometry" />
        </mxCell>
        <mxCell id="-nB0gfUVQe1chdUKQBeN-111" value="payment_method" style="rounded=0;whiteSpace=wrap;html=1;" parent="-nB0gfUVQe1chdUKQBeN-113" vertex="1">
          <mxGeometry x="200" y="30" width="100" height="30" as="geometry" />
        </mxCell>
        <mxCell id="-nB0gfUVQe1chdUKQBeN-120" value="" style="group" parent="1" vertex="1" connectable="0">
          <mxGeometry x="630" y="475" width="200" height="60" as="geometry" />
        </mxCell>
        <mxCell id="-nB0gfUVQe1chdUKQBeN-115" value="&lt;span style=&quot;text-decoration-line: underline;&quot;&gt;payment_id&lt;/span&gt;" style="rounded=0;whiteSpace=wrap;html=1;" parent="-nB0gfUVQe1chdUKQBeN-120" vertex="1">
          <mxGeometry y="30" width="100" height="30" as="geometry" />
        </mxCell>
        <mxCell id="-nB0gfUVQe1chdUKQBeN-117" value="Paid with" style="text;html=1;align=center;verticalAlign=middle;whiteSpace=wrap;rounded=0;fillColor=#dae8fc;strokeColor=#6c8ebf;" parent="-nB0gfUVQe1chdUKQBeN-120" vertex="1">
          <mxGeometry width="60" height="30" as="geometry" />
        </mxCell>
        <mxCell id="-nB0gfUVQe1chdUKQBeN-118" value="&lt;span style=&quot;text-decoration-line: underline;&quot;&gt;order_id&lt;/span&gt;" style="rounded=0;whiteSpace=wrap;html=1;" parent="-nB0gfUVQe1chdUKQBeN-120" vertex="1">
          <mxGeometry x="100" y="30" width="100" height="30" as="geometry" />
        </mxCell>
        <mxCell id="-nB0gfUVQe1chdUKQBeN-121" value="" style="group" parent="1" vertex="1" connectable="0">
          <mxGeometry x="630" y="635" width="200" height="60" as="geometry" />
        </mxCell>
        <mxCell id="-nB0gfUVQe1chdUKQBeN-122" value="&lt;span style=&quot;text-decoration-line: underline;&quot;&gt;order_id&lt;/span&gt;" style="rounded=0;whiteSpace=wrap;html=1;" parent="-nB0gfUVQe1chdUKQBeN-121" vertex="1">
          <mxGeometry y="30" width="100" height="30" as="geometry" />
        </mxCell>
        <mxCell id="-nB0gfUVQe1chdUKQBeN-123" value="Contains" style="text;html=1;align=center;verticalAlign=middle;whiteSpace=wrap;rounded=0;fillColor=#dae8fc;strokeColor=#6c8ebf;" parent="-nB0gfUVQe1chdUKQBeN-121" vertex="1">
          <mxGeometry width="60" height="30" as="geometry" />
        </mxCell>
        <mxCell id="-nB0gfUVQe1chdUKQBeN-124" value="&lt;span style=&quot;text-decoration-line: underline;&quot;&gt;ISBN&lt;/span&gt;" style="rounded=0;whiteSpace=wrap;html=1;" parent="-nB0gfUVQe1chdUKQBeN-121" vertex="1">
          <mxGeometry x="100" y="30" width="100" height="30" as="geometry" />
        </mxCell>
        <mxCell id="-nB0gfUVQe1chdUKQBeN-134" value="" style="group" parent="1" vertex="1" connectable="0">
          <mxGeometry x="930" y="795" width="400" height="60" as="geometry" />
        </mxCell>
        <mxCell id="-nB0gfUVQe1chdUKQBeN-126" value="&lt;span style=&quot;text-decoration-line: underline;&quot;&gt;publisher_id&lt;/span&gt;" style="rounded=0;whiteSpace=wrap;html=1;" parent="-nB0gfUVQe1chdUKQBeN-134" vertex="1">
          <mxGeometry y="30" width="100" height="30" as="geometry" />
        </mxCell>
        <mxCell id="-nB0gfUVQe1chdUKQBeN-128" value="Publisher" style="text;html=1;align=center;verticalAlign=middle;whiteSpace=wrap;rounded=0;fillColor=#d5e8d4;strokeColor=#82b366;" parent="-nB0gfUVQe1chdUKQBeN-134" vertex="1">
          <mxGeometry width="60" height="30" as="geometry" />
        </mxCell>
        <mxCell id="-nB0gfUVQe1chdUKQBeN-130" value="phone_number" style="rounded=0;whiteSpace=wrap;html=1;" parent="-nB0gfUVQe1chdUKQBeN-134" vertex="1">
          <mxGeometry x="200" y="30" width="100" height="30" as="geometry" />
        </mxCell>
        <mxCell id="-nB0gfUVQe1chdUKQBeN-132" value="e-mail" style="rounded=0;whiteSpace=wrap;html=1;" parent="-nB0gfUVQe1chdUKQBeN-134" vertex="1">
          <mxGeometry x="300" y="30" width="100" height="30" as="geometry" />
        </mxCell>
        <mxCell id="-nB0gfUVQe1chdUKQBeN-133" value="publisher_name" style="rounded=0;whiteSpace=wrap;html=1;" parent="-nB0gfUVQe1chdUKQBeN-134" vertex="1">
          <mxGeometry x="100" y="30" width="100" height="30" as="geometry" />
        </mxCell>
        <mxCell id="-nB0gfUVQe1chdUKQBeN-141" value="" style="group" parent="1" vertex="1" connectable="0">
          <mxGeometry x="930" y="875" width="200" height="60" as="geometry" />
        </mxCell>
        <mxCell id="-nB0gfUVQe1chdUKQBeN-136" value="&lt;span style=&quot;text-decoration-line: underline;&quot;&gt;category_id&lt;/span&gt;" style="rounded=0;whiteSpace=wrap;html=1;" parent="-nB0gfUVQe1chdUKQBeN-141" vertex="1">
          <mxGeometry y="30" width="100" height="30" as="geometry" />
        </mxCell>
        <mxCell id="-nB0gfUVQe1chdUKQBeN-137" value="Category" style="text;html=1;align=center;verticalAlign=middle;whiteSpace=wrap;rounded=0;fillColor=#d5e8d4;strokeColor=#82b366;" parent="-nB0gfUVQe1chdUKQBeN-141" vertex="1">
          <mxGeometry width="60" height="30" as="geometry" />
        </mxCell>
        <mxCell id="-nB0gfUVQe1chdUKQBeN-140" value="category_name" style="rounded=0;whiteSpace=wrap;html=1;" parent="-nB0gfUVQe1chdUKQBeN-141" vertex="1">
          <mxGeometry x="100" y="30" width="100" height="30" as="geometry" />
        </mxCell>
        <mxCell id="-nB0gfUVQe1chdUKQBeN-143" value="" style="group" parent="1" vertex="1" connectable="0">
          <mxGeometry x="180" y="315" width="700" height="60" as="geometry" />
        </mxCell>
        <mxCell id="-nB0gfUVQe1chdUKQBeN-14" value="&lt;span style=&quot;text-decoration-line: underline;&quot;&gt;ID&lt;/span&gt;" style="rounded=0;whiteSpace=wrap;html=1;" parent="-nB0gfUVQe1chdUKQBeN-143" vertex="1">
          <mxGeometry y="30" width="100" height="30" as="geometry" />
        </mxCell>
        <mxCell id="-nB0gfUVQe1chdUKQBeN-19" value="first_name" style="rounded=0;whiteSpace=wrap;html=1;" parent="-nB0gfUVQe1chdUKQBeN-143" vertex="1">
          <mxGeometry x="200" y="30" width="100" height="30" as="geometry" />
        </mxCell>
        <mxCell id="-nB0gfUVQe1chdUKQBeN-20" value="Person" style="text;html=1;align=center;verticalAlign=middle;whiteSpace=wrap;rounded=0;fillColor=#d5e8d4;strokeColor=#82b366;" parent="-nB0gfUVQe1chdUKQBeN-143" vertex="1">
          <mxGeometry width="60" height="30" as="geometry" />
        </mxCell>
        <mxCell id="-nB0gfUVQe1chdUKQBeN-21" value="last_name" style="rounded=0;whiteSpace=wrap;html=1;" parent="-nB0gfUVQe1chdUKQBeN-143" vertex="1">
          <mxGeometry x="300" y="30" width="100" height="30" as="geometry" />
        </mxCell>
        <mxCell id="-nB0gfUVQe1chdUKQBeN-22" value="adress_id" style="rounded=0;whiteSpace=wrap;html=1;" parent="-nB0gfUVQe1chdUKQBeN-143" vertex="1">
          <mxGeometry x="100" y="30" width="100" height="30" as="geometry" />
        </mxCell>
        <mxCell id="-nB0gfUVQe1chdUKQBeN-23" value="e-mail" style="rounded=0;whiteSpace=wrap;html=1;" parent="-nB0gfUVQe1chdUKQBeN-143" vertex="1">
          <mxGeometry x="400" y="30" width="100" height="30" as="geometry" />
        </mxCell>
        <mxCell id="-nB0gfUVQe1chdUKQBeN-24" value="home_phone" style="rounded=0;whiteSpace=wrap;html=1;" parent="-nB0gfUVQe1chdUKQBeN-143" vertex="1">
          <mxGeometry x="500" y="30" width="100" height="30" as="geometry" />
        </mxCell>
        <mxCell id="-nB0gfUVQe1chdUKQBeN-25" value="mobile_phone" style="rounded=0;whiteSpace=wrap;html=1;" parent="-nB0gfUVQe1chdUKQBeN-143" vertex="1">
          <mxGeometry x="600" y="30" width="100" height="30" as="geometry" />
        </mxCell>
        <mxCell id="-nB0gfUVQe1chdUKQBeN-144" style="edgeStyle=orthogonalEdgeStyle;rounded=0;orthogonalLoop=1;jettySize=auto;html=1;entryX=0.5;entryY=1;entryDx=0;entryDy=0;" parent="1" source="-nB0gfUVQe1chdUKQBeN-22" target="-nB0gfUVQe1chdUKQBeN-29" edge="1">
          <mxGeometry relative="1" as="geometry">
            <Array as="points">
              <mxPoint x="330" y="305" />
              <mxPoint x="230" y="305" />
            </Array>
          </mxGeometry>
        </mxCell>
        <mxCell id="-nB0gfUVQe1chdUKQBeN-146" style="edgeStyle=orthogonalEdgeStyle;rounded=0;orthogonalLoop=1;jettySize=auto;html=1;entryX=0.25;entryY=1;entryDx=0;entryDy=0;" parent="1" source="-nB0gfUVQe1chdUKQBeN-60" target="-nB0gfUVQe1chdUKQBeN-14" edge="1">
          <mxGeometry relative="1" as="geometry">
            <Array as="points">
              <mxPoint x="205" y="760" />
            </Array>
          </mxGeometry>
        </mxCell>
        <mxCell id="-nB0gfUVQe1chdUKQBeN-145" style="edgeStyle=orthogonalEdgeStyle;rounded=0;orthogonalLoop=1;jettySize=auto;html=1;entryX=0.75;entryY=1;entryDx=0;entryDy=0;" parent="1" source="-nB0gfUVQe1chdUKQBeN-48" target="-nB0gfUVQe1chdUKQBeN-14" edge="1">
          <mxGeometry relative="1" as="geometry">
            <mxPoint x="250" y="375" as="targetPoint" />
            <Array as="points">
              <mxPoint x="255" y="600" />
            </Array>
          </mxGeometry>
        </mxCell>
        <mxCell id="-nB0gfUVQe1chdUKQBeN-147" style="edgeStyle=orthogonalEdgeStyle;rounded=0;orthogonalLoop=1;jettySize=auto;html=1;entryX=0.5;entryY=0;entryDx=0;entryDy=0;" parent="1" source="-nB0gfUVQe1chdUKQBeN-94" target="-nB0gfUVQe1chdUKQBeN-75" edge="1">
          <mxGeometry relative="1" as="geometry">
            <Array as="points">
              <mxPoint x="980" y="545" />
              <mxPoint x="505" y="545" />
            </Array>
          </mxGeometry>
        </mxCell>
        <mxCell id="-nB0gfUVQe1chdUKQBeN-148" style="edgeStyle=orthogonalEdgeStyle;rounded=0;orthogonalLoop=1;jettySize=auto;html=1;entryX=0;entryY=0.5;entryDx=0;entryDy=0;" parent="1" source="-nB0gfUVQe1chdUKQBeN-115" target="-nB0gfUVQe1chdUKQBeN-105" edge="1">
          <mxGeometry relative="1" as="geometry">
            <Array as="points">
              <mxPoint x="710" y="440" />
            </Array>
          </mxGeometry>
        </mxCell>
        <mxCell id="-nB0gfUVQe1chdUKQBeN-149" style="edgeStyle=orthogonalEdgeStyle;rounded=0;orthogonalLoop=1;jettySize=auto;html=1;entryX=0;entryY=0.5;entryDx=0;entryDy=0;" parent="1" source="-nB0gfUVQe1chdUKQBeN-118" target="-nB0gfUVQe1chdUKQBeN-68" edge="1">
          <mxGeometry relative="1" as="geometry" />
        </mxCell>
        <mxCell id="-nB0gfUVQe1chdUKQBeN-150" style="edgeStyle=orthogonalEdgeStyle;rounded=0;orthogonalLoop=1;jettySize=auto;html=1;entryX=0;entryY=0.5;entryDx=0;entryDy=0;" parent="1" source="-nB0gfUVQe1chdUKQBeN-124" target="-nB0gfUVQe1chdUKQBeN-83" edge="1">
          <mxGeometry relative="1" as="geometry" />
        </mxCell>
        <mxCell id="-nB0gfUVQe1chdUKQBeN-151" style="edgeStyle=orthogonalEdgeStyle;rounded=0;orthogonalLoop=1;jettySize=auto;html=1;exitX=0.75;exitY=0;exitDx=0;exitDy=0;entryX=0;entryY=0.5;entryDx=0;entryDy=0;" parent="1" source="-nB0gfUVQe1chdUKQBeN-122" target="-nB0gfUVQe1chdUKQBeN-68" edge="1">
          <mxGeometry relative="1" as="geometry">
            <Array as="points">
              <mxPoint x="705" y="600" />
            </Array>
          </mxGeometry>
        </mxCell>
        <mxCell id="-nB0gfUVQe1chdUKQBeN-153" style="edgeStyle=orthogonalEdgeStyle;rounded=0;orthogonalLoop=1;jettySize=auto;html=1;entryX=1;entryY=0.5;entryDx=0;entryDy=0;" parent="1" source="-nB0gfUVQe1chdUKQBeN-90" target="-nB0gfUVQe1chdUKQBeN-64" edge="1">
          <mxGeometry relative="1" as="geometry">
            <Array as="points">
              <mxPoint x="980" y="785" />
              <mxPoint x="670" y="785" />
              <mxPoint x="670" y="760" />
            </Array>
          </mxGeometry>
        </mxCell>
        <mxCell id="-nB0gfUVQe1chdUKQBeN-154" style="edgeStyle=orthogonalEdgeStyle;rounded=0;orthogonalLoop=1;jettySize=auto;html=1;entryX=0.75;entryY=0;entryDx=0;entryDy=0;" parent="1" source="-nB0gfUVQe1chdUKQBeN-87" target="-nB0gfUVQe1chdUKQBeN-126" edge="1">
          <mxGeometry relative="1" as="geometry" />
        </mxCell>
        <mxCell id="-nB0gfUVQe1chdUKQBeN-155" style="edgeStyle=orthogonalEdgeStyle;rounded=0;orthogonalLoop=1;jettySize=auto;html=1;entryX=0.75;entryY=0;entryDx=0;entryDy=0;" parent="1" source="-nB0gfUVQe1chdUKQBeN-89" target="-nB0gfUVQe1chdUKQBeN-136" edge="1">
          <mxGeometry relative="1" as="geometry">
            <Array as="points">
              <mxPoint x="1180" y="795" />
              <mxPoint x="1360" y="795" />
              <mxPoint x="1360" y="875" />
              <mxPoint x="1005" y="875" />
            </Array>
          </mxGeometry>
        </mxCell>
      </root>
    </mxGraphModel>
  </diagram>
</mxfile>
